<?xml version="1.0" encoding="UTF-8"?>
<!DOCTYPE svg PUBLIC "-//W3C//DTD SVG 1.1//EN" "http://www.w3.org/Graphics/SVG/1.1/DTD/svg11.dtd">
<!-- Creator: CorelDRAW X5 -->
<svg xmlns="http://www.w3.org/2000/svg" xml:space="preserve" width="64px" height="64px" style="shape-rendering:geometricPrecision; text-rendering:geometricPrecision; image-rendering:optimizeQuality; fill-rule:evenodd; clip-rule:evenodd"
viewBox="0 0 350 350"
 xmlns:xlink="http://www.w3.org/1999/xlink">
 <defs>
  <style type="text/css">
   <![CDATA[
    .str0 {stroke:#FF8787;stroke-width:5.46424}
    .fil0 {fill:none}
   ]]>
  </style>
 </defs>
 <g id="Layer_x0020_1">
  <metadata id="CorelCorpID_0Corel-Layer"/>
  <rect class="fil0" width="350" height="350"/>
  <path class="fil0 str0" d="M11 24l82 0 0 56 -82 0 0 -56zm247 169l82 0 0 56 -82 0 0 -56zm0 -56l82 0 0 56 -82 0 0 -56zm0 -56l82 0 0 56 -82 0 0 -56zm0 -56l82 0 0 56 -82 0 0 -56zm-82 169l82 0 0 56 -82 0 0 -56zm0 -56l82 0 0 56 -82 0 0 -56zm0 -56l82 0 0 56 -82 0 0 -56zm0 -56l82 0 0 56 -82 0 0 -56zm-82 169l82 0 0 56 -82 0 0 -56zm0 -56l82 0 0 56 -82 0 0 -56zm0 -56l82 0 0 56 -82 0 0 -56zm0 -56l82 0 0 56 -82 0 0 -56zm-82 169l82 0 0 56 -82 0 0 -56zm0 -56l82 0 0 56 -82 0 0 -56zm0 -56l82 0 0 56 -82 0 0 -56z"/>
 </g>
</svg>
